<svg width="1041" height="180" viewBox="0 0 1041 180" fill="none" xmlns="http://www.w3.org/2000/svg">
<path d="M44.8465 14.135C31.363 21.8455 20.516 32.4473 12.6067 45.6382C4.67862 58.8291 0.66748 73.4184 0.66748 88.9904C0.66748 104.562 4.67862 119.171 12.6067 132.362C20.5349 145.552 31.3819 156.154 44.8465 163.865C58.3111 171.575 73.3576 175.468 89.5151 175.468H154.88V70.0923H79.0259V106.679H114.768V136.444H90.758C82.2273 136.444 74.2804 134.27 67.1243 129.999C59.9683 125.728 54.2058 119.908 50.0252 112.726C45.8446 105.545 43.7166 97.5702 43.7166 89.0093C43.7166 80.4485 45.8446 72.4735 50.0252 65.2922C54.2058 58.1109 59.9495 52.2903 67.1243 48.0193C74.2804 43.7484 82.2273 41.5751 90.758 41.5751H154.899V2.5127H89.534C73.3764 2.5127 58.33 6.4246 44.8653 14.1161L44.8465 14.135Z" fill="url(#paint0_linear_2_1475)"/>
<path d="M251.259 0.820312C211.298 0.820312 178.794 33.4384 178.794 73.5402V175.439H218.115V124.282H284.402V175.439H323.723V73.5402C323.704 33.4384 291.201 0.820312 251.259 0.820312ZM284.402 87.8083H218.115V73.5213C218.115 55.1713 232.992 40.2607 251.259 40.2607C269.525 40.2607 284.402 55.1902 284.402 73.5213V87.8083Z" fill="url(#paint1_linear_2_1475)"/>
<path d="M540.513 0.664551C510.439 0.664551 485.976 25.2132 485.976 55.3935V124.863C485.976 132.989 479.404 139.585 471.306 139.585C463.209 139.585 456.637 132.989 456.637 124.863V55.488C456.655 25.3266 432.193 0.777939 402.119 0.777939C372.045 0.777939 347.583 25.3266 347.583 55.5069V175.567H387.449V55.488C387.449 47.3618 394.021 40.7663 402.119 40.7663C410.217 40.7663 416.789 47.3618 416.789 55.488V124.863C416.789 155.043 441.251 179.592 471.325 179.592C501.399 179.592 525.862 155.043 525.862 124.863V55.3935C525.862 47.2673 532.434 40.6719 540.532 40.6719C548.629 40.6719 555.201 47.2673 555.201 55.3935V116.586V175.567H595.068V55.3935C595.068 25.2132 570.606 0.664551 540.532 0.664551H540.513Z" fill="url(#paint2_linear_2_1475)"/>
<path d="M968.203 0.915527C928.243 0.915527 895.739 33.5337 895.739 73.6355V175.534H935.06V124.377H1001.35V175.534H1040.67V73.6355C1040.67 33.5337 1008.16 0.915527 968.203 0.915527ZM1001.35 87.9035H935.06V73.6166C935.06 55.2665 949.937 40.3559 968.203 40.3559C986.47 40.3559 1001.35 55.2854 1001.35 73.6166V87.9035Z" fill="url(#paint3_linear_2_1475)"/>
<path d="M817.326 0.664551C787.252 0.664551 762.79 25.2132 762.79 55.3935V124.863C762.79 132.989 756.217 139.585 748.12 139.585C740.022 139.585 733.45 132.989 733.45 124.863V55.3935C733.45 25.2132 708.988 0.664551 678.913 0.664551C648.839 0.664551 624.377 25.2132 624.377 55.3935V175.567H664.244V116.586V55.3935C664.244 47.2673 670.816 40.6719 678.913 40.6719C687.011 40.6719 693.583 47.2673 693.583 55.3935V124.863C693.583 155.043 718.046 179.592 748.12 179.592C778.194 179.592 802.656 155.043 802.656 124.863V55.3935C802.656 47.2673 809.228 40.6719 817.326 40.6719C825.424 40.6719 831.996 47.2673 831.996 55.3935V175.567H871.862V55.3935C871.862 25.2132 847.4 0.664551 817.326 0.664551Z" fill="url(#paint4_linear_2_1475)"/>
<defs>
<linearGradient id="paint0_linear_2_1475" x1="77.783" y1="2.5127" x2="77.783" y2="175.468" gradientUnits="userSpaceOnUse">
<stop stop-color="white"/>
<stop offset="1" stop-color="white" stop-opacity="0.1"/>
</linearGradient>
<linearGradient id="paint1_linear_2_1475" x1="251.259" y1="0.820312" x2="251.259" y2="175.439" gradientUnits="userSpaceOnUse">
<stop stop-color="white"/>
<stop offset="1" stop-color="white" stop-opacity="0.1"/>
</linearGradient>
<linearGradient id="paint2_linear_2_1475" x1="471.325" y1="0.664551" x2="471.325" y2="179.592" gradientUnits="userSpaceOnUse">
<stop stop-color="white"/>
<stop offset="1" stop-color="white" stop-opacity="0.1"/>
</linearGradient>
<linearGradient id="paint3_linear_2_1475" x1="968.203" y1="0.915527" x2="968.203" y2="175.534" gradientUnits="userSpaceOnUse">
<stop stop-color="white"/>
<stop offset="1" stop-color="white" stop-opacity="0.1"/>
</linearGradient>
<linearGradient id="paint4_linear_2_1475" x1="748.12" y1="0.664551" x2="748.12" y2="179.592" gradientUnits="userSpaceOnUse">
<stop stop-color="white"/>
<stop offset="1" stop-color="white" stop-opacity="0.1"/>
</linearGradient>
</defs>
</svg>
