<?xml version="1.0" encoding="UTF-8"?>
<svg xmlns="http://www.w3.org/2000/svg" version="1.1" viewBox="0 0 1512 129.4">
  <defs>
    <style>
      .cls-1 {
        fill: #fff;
      }
    </style>
  </defs>
  <!-- Generator: Adobe Illustrator 28.7.5, SVG Export Plug-In . SVG Version: 1.2.0 Build 176)  -->
  <g>
    <g id="Layer_1">
      <g id="Layer_1-2" data-name="Layer_1">
        <path class="cls-1" d="M28.1,81.5h23.9v20.8h-16.8c-5.9,0-11.5-1.5-16.5-4.5-5-2.9-9-7-12-12s-4.4-10.5-4.4-16.4,1.5-11.4,4.4-16.4c2.9-5,7-8.9,12-12,5-3,10.6-4.5,16.5-4.5h44.9V9.8h-44.9c-11.1,0-21.4,2.7-30.8,7.9-9.3,5.3-16.7,12.6-22.1,21.6-5.5,9-8.2,19-8.2,29.7s2.8,20.7,8.2,29.7c5.4,9,12.9,16.3,22.1,21.6s19.6,8,30.8,8h44.9V56.6H28.1v25Z"/>
        <path class="cls-1" d="M149.4,8.5c-28.8-1.6-52.7,21.4-52.7,49.8v70h27v-35.3h45.7v35.3h27V59.2c0-26.6-20.6-49.2-47.1-50.6ZM169.5,68h-45.7v-9.3c0-11.4,8.2-21.4,19.4-23.1,14.1-2.1,26.3,8.8,26.3,22.6v9.8h0Z"/>
        <path class="cls-1" d="M1498.9,8.5c-28.8-1.6-52.7,21.4-52.7,49.8v70h27v-35.3h45.7v35.3h27V59.2c0-26.6-20.6-49.2-47.1-50.6ZM1519,68h-45.7v-9.3c0-11.4,8.2-21.4,19.4-23.1,14.1-2.1,26.3,8.8,26.3,22.6v9.8Z"/>
        <path class="cls-1" d="M1393,8.5c-21-.4-38.3,16.5-38.3,37.5v48.2c0,5.6-4.7,10.1-10.4,10.1h-.3c-5.5,0-10.1-4.5-10.1-10.1v-46.9c0-20.5-16.1-37.7-36.6-38.2-21-.5-38.3,16.5-38.3,37.4v46.9c0,5.7-4.7,10.4-10.4,10.4v.3c-5.2-.4-9.4-4.7-9.4-10.1v-46.9c0-20.5-16.1-37.7-36.6-38.2-21-.4-38.3,16.5-38.3,37.4v47.6c0,5.6-4.5,10.1-10.1,10.1h-.6c-5.5,0-10.1-4.5-10.1-10.1v-46.9c0-20.5-16.1-37.7-36.6-38.2-21-.4-38.3,16.5-38.3,37.4v47.6c0,5.5-4.4,10-9.9,10.1-5.4,0-9.9-4.6-9.9-10.1v-46.9c0-20.5-16.1-37.7-36.6-38.2-21-.4-38.3,16.5-38.3,37.4v47.6c0,5.6-4.5,10.1-10.1,10.1h-.6c-5.5,0-10.1-4.5-10.1-10.1v-46.9c0-20.5-16.1-37.7-36.6-38.2-21-.4-38.3,16.5-38.3,37.4v46.9c0,5.7-4.7,10.4-10.4,10.4v.3c-5.2-.4-9.4-4.7-9.4-10.1v-46.9c0-20.5-16.1-37.7-36.6-38.2-21-.4-38.3,16.5-38.3,37.4v47.6c0,5.6-4.5,10.1-10.1,10.1h-.6c-5.5,0-10.1-4.5-10.1-10.1v-46.9c0-20.5-16.1-37.7-36.6-38.2-21-.4-38.3,16.5-38.3,37.4v46.9c0,5.7-4.7,10.4-10.4,10.4v.3c-5.2-.4-9.4-4.7-9.4-10.1v-46.9c0-20.5-16.1-37.7-36.6-38.2-21-.4-38.3,16.5-38.3,37.4v46.9c0,5.7-4.7,10.4-10.4,10.4v.3h-.3c-5.5,0-10.1-4.5-10.1-10.1v-46.9c0-20.5-16.1-37.7-36.6-38.2-21-.4-38.3,16.5-38.3,37.4v46.9c0,5.7-4.7,10.4-10.4,10.4v.3c-5.2-.4-9.4-4.7-9.4-10.1v-46.9c0-20.5-16.1-37.7-36.6-38.2-21-.4-38.3,16.5-38.3,37.4v47.6c0,5.6-4.5,10.1-10.1,10.1h-.6c-5.5,0-10.1-4.5-10.1-10.1v-46.9c0-20.5-16.1-37.7-36.6-38.2-21-.4-38.3,16.5-38.3,37.4v47.4c0,5.2-4.2,9.4-9.4,9.4v.5h0c-5.7,0-10.4-4.7-10.4-10.4v-46.9c0-20.5-16.1-37.7-36.6-38.2-21-.4-38.3,16.5-38.3,37.5v82.2h27V46.2c0-5,3.5-9.5,8.4-10.2,6.1-.9,11.3,4,11.3,10v47.5c0,20.9,17.1,37.9,37.9,37.9h0c20.9,0,37.9-17.1,37.9-37.9v-47.1c0-5.3,4-9.9,9.3-10.3,5.7-.3,10.5,4.2,10.5,9.9v47.7c0,20.6,16.7,37.4,37.4,37.4h0c20.7,0,37.4-16.8,37.4-37.4v-47.3c0-5.3,4-9.9,9.3-10.3,5.7-.3,10.5,4.2,10.5,9.9v48.1c0,20.7,16.7,37.4,37.4,37.4h0c21.2,0,38.5-17.3,38.5-38.5v-46.8c0-5.3,4-9.9,9.3-10.3,5.7-.3,10.5,4.2,10.5,9.9v48.1c0,20.7,16.8,37.4,37.4,37.4v-.5c20.6,0,37.4-16.8,37.4-37.4v-47.3c0-5.3,4-9.9,9.3-10.3,5.7-.3,10.5,4.2,10.5,9.9v48.1c0,20.7,16.8,37.5,37.4,37.5h0c21.2,0,38.5-17.3,38.5-38.5v-46.8c0-5.3,4-9.9,9.3-10.3,5.7-.3,10.5,4.2,10.5,9.9v47.7c0,20.6,16.8,37.4,37.4,37.4h0c20.6,0,37.4-16.8,37.4-37.4v-47.3c0-5.3,4-9.9,9.3-10.3,5.7-.3,10.5,4.2,10.5,9.9v48.1c0,20.7,16.8,37.4,37.4,37.4h0c21.2,0,38.5-17.3,38.5-38.5v-46.8c0-5.3,4-9.9,9.3-10.3,5.7-.3,10.5,4.2,10.5,9.9v47.7c0,20.6,16.8,37.4,37.4,37.4h0c20.6,0,37.4-16.8,37.4-37.4v-47.3c0-5.3,4-9.9,9.3-10.3,5.7-.3,10.5,4.2,10.5,9.9v47.3c0,17.6,12,33.2,29,37.1,24.7,5.7,46.9-13.1,46.9-36.9v-47.1c0-5.3,4-9.9,9.3-10.3,5.7-.3,10.5,4.2,10.5,9.9v47c0,20.5,16.1,37.7,36.6,38.2,21,.4,38.3-16.5,38.3-37.4v-47.3c0-5.3,4-9.9,9.3-10.3,5.7-.3,10.5,4.3,10.5,9.9v48.1c0,20.7,16.8,37.4,37.4,37.4h0c21.2,0,38.5-17.3,38.5-38.5v-46.8c0-5.3,4-9.9,9.3-10.3,5.7-.3,10.5,4.2,10.5,9.9v47c0,20.5,16.1,37.7,36.6,38.2,21,.4,38.3-16.5,38.3-37.4v-47.6c0-5,3.5-9.5,8.4-10.2,6.1-.8,11.3,4,11.3,10v82.2h28.1V46.7c0-20.5-16.1-37.7-36.6-38.2h0Z"/>
      </g>
    </g>
  </g>
</svg>